<svg version="1.1" id="Layer_1" xmlns="http://www.w3.org/2000/svg" xmlns:xlink="http://www.w3.org/1999/xlink" x="0px" y="0px"
	 width="100%" viewBox="0 0 1024 1024" enable-background="new 0 0 1024 1024" xml:space="preserve">
<path fill="#343BA4" opacity="1.000000" stroke="none" 
	d="
M1025.000000,141.000000 
	C1025.000000,389.361359 1025.000000,637.722717 1024.637695,886.677124 
	C1023.857117,889.217529 1023.356689,891.151367 1023.032898,893.114258 
	C1018.685242,919.468140 1008.085999,943.056213 991.633240,964.041016 
	C990.647278,965.298462 989.244507,966.229004 987.859314,967.005737 
	C978.580750,962.115173 972.543945,954.788879 968.887939,944.937195 
	C964.924988,957.229065 956.839050,964.716003 943.952637,968.807678 
	C947.611511,970.451050 949.971985,971.472229 952.299438,972.563904 
	C959.255310,975.826660 963.148438,982.076416 967.223267,988.380493 
	C966.830933,989.119995 966.616882,989.614563 966.244629,989.909607 
	C945.680359,1006.206482 922.690918,1017.283203 896.822205,1022.191711 
	C892.525208,1023.007019 888.272949,1024.057983 884.000000,1025.000000 
	C637.305298,1025.000000 390.610596,1025.000000 143.274750,1024.650635 
	C139.681580,1023.848328 136.735504,1023.351318 133.776596,1022.948608 
	C71.392273,1014.457703 15.589545,961.274780 4.101528,899.356567 
	C3.089215,893.900391 2.034834,888.452026 0.999993,883.000000 
	C1.000000,636.305298 1.000000,389.610596 1.338664,142.240204 
	C2.335458,137.132980 2.840675,132.672485 3.674699,128.274323 
	C15.805165,64.305283 70.629799,12.029522 135.100128,2.836794 
	C137.439819,2.503180 139.701797,1.624602 142.000000,1.000000 
	C388.361359,1.000000 634.722717,1.000000 881.745422,1.350614 
	C955.034851,10.289641 1009.878662,60.898136 1022.718018,131.135315 
	C1023.324219,134.451752 1024.232422,137.713028 1025.000000,141.000000 
M565.896851,643.500000 
	C565.902832,612.006714 565.990723,580.512878 565.814453,549.020630 
	C565.791504,544.924255 567.055725,542.347778 570.200989,539.812195 
	C583.041931,529.460510 595.685730,518.863403 608.354309,508.299255 
	C613.854553,503.712677 614.774963,496.917603 610.724670,491.984924 
	C607.002380,487.451721 600.794617,487.382080 595.270264,492.002197 
	C588.625793,497.559143 582.114258,503.274689 575.506897,508.876495 
	C563.456360,519.093262 551.377686,529.276794 539.173401,539.590210 
	C540.525574,541.093994 541.777649,542.396973 542.930237,543.782654 
	C550.819885,553.268555 551.712341,566.823120 545.093140,576.256226 
	C538.226074,586.042542 525.521118,589.789246 513.948059,585.440979 
	C502.207733,581.029724 495.724609,570.012878 497.071991,556.763123 
	C498.208679,545.585449 507.483917,536.246765 519.209534,534.127869 
	C521.354004,533.740356 523.625977,532.682312 525.299927,531.286926 
	C537.585327,521.045959 549.666138,510.559204 561.975708,500.347961 
	C564.793274,498.010681 565.974548,495.647919 565.961121,491.910889 
	C565.818542,452.251129 565.872131,412.590698 565.887573,372.930420 
	C565.888245,371.190582 566.041138,369.450836 566.147583,367.191864 
	C612.143311,367.191864 657.532715,367.191864 702.977417,367.191864 
	C702.977417,337.224091 702.977417,307.813385 702.977417,278.195740 
	C578.524841,278.195740 454.421082,278.195740 330.067322,278.195740 
	C330.067322,307.943665 330.067322,337.469940 330.067322,367.366486 
	C331.992920,367.366486 333.472839,367.366943 334.952789,367.366425 
	C377.279266,367.351440 419.605774,367.338867 461.932251,367.318726 
	C468.516724,367.315582 468.480682,367.299438 468.475983,373.761383 
	C468.388184,494.075165 468.328094,614.388977 468.148865,734.702637 
	C468.142914,738.712952 469.350830,739.734741 473.263092,739.713623 
	C502.757172,739.554443 532.252441,739.625610 561.747314,739.601929 
	C563.031189,739.600891 564.314941,739.377014 565.898438,739.228943 
	C565.898438,707.446838 565.898438,675.973450 565.896851,643.500000 
M682.667053,642.238586 
	C726.481934,540.436523 666.087646,438.516327 584.046570,410.840668 
	C584.046570,415.446686 584.491211,419.977142 583.940979,424.383362 
	C583.141785,430.782501 585.163940,434.873566 591.510986,436.716949 
	C592.836914,437.102051 593.946533,438.231873 595.248047,439.078430 
	C592.309326,444.171295 589.372253,448.817291 586.888245,453.694092 
	C584.518372,458.347015 586.125549,462.879883 590.475708,465.193420 
	C594.909180,467.551239 599.166138,466.338928 602.010986,461.791595 
	C604.832703,457.281433 607.556946,452.710266 610.531860,447.824280 
	C627.096741,458.905884 640.709656,472.396637 651.497803,489.166962 
	C648.564941,490.884277 646.265076,492.211243 643.985107,493.571442 
	C641.697632,494.936157 639.366455,496.240814 637.166870,497.736969 
	C632.733459,500.752594 631.584106,505.660919 634.198975,509.882843 
	C636.841309,514.149231 641.008789,515.202942 645.862122,512.704773 
	C650.710693,510.209015 655.503723,507.605408 660.684509,504.856232 
	C669.673279,523.411926 675.072693,542.367798 676.194153,563.393982 
	C670.423096,563.393982 665.292664,563.262390 660.171997,563.428833 
	C654.403198,563.616333 650.810730,567.248352 650.960144,572.397278 
	C651.105408,577.403381 654.496765,580.580261 660.197021,580.738220 
	C665.318909,580.880188 670.447876,580.768188 676.143616,580.768188 
	C675.188599,601.786682 669.644287,620.669067 660.925171,639.035889 
	C655.525208,636.214417 650.845276,633.170959 645.731323,631.339233 
	C643.010986,630.364929 638.947693,630.471375 636.528687,631.876831 
	C631.398804,634.857178 631.649109,642.303223 636.658630,645.729370 
	C641.420288,648.985962 646.496216,651.782959 651.381287,654.750000 
	C645.489014,667.381775 620.422913,692.771790 610.164001,696.557739 
	C608.905579,694.486206 607.608887,692.369263 606.330017,690.241577 
	C605.042725,688.099792 603.829224,685.911560 602.484375,683.806946 
	C599.295837,678.816895 594.492615,677.294434 590.225342,679.852417 
	C585.847229,682.476807 584.812561,687.184570 587.625244,692.523865 
	C590.014038,697.058533 592.587036,701.496033 595.334412,706.436646 
	C592.235962,708.046509 589.396240,709.353882 586.750122,710.976990 
	C585.646729,711.653870 584.233643,712.976562 584.194885,714.050171 
	C583.958496,720.601196 584.076782,727.165039 584.076782,734.641724 
	C629.223267,716.198975 662.176575,686.423279 682.667053,642.238586 
z"/>
<path fill="#FDFDFE" opacity="1.000000" stroke="none" 
	d="
M988.035706,967.311707 
	C989.244507,966.229004 990.647278,965.298462 991.633240,964.041016 
	C1008.085999,943.056213 1018.685242,919.468140 1023.032898,893.114258 
	C1023.356689,891.151367 1023.857117,889.217529 1024.637695,887.135132 
	C1025.000000,932.927795 1025.000000,978.855530 1025.000000,1025.000000 
	C978.312683,1025.000000 931.625000,1025.000000 884.468628,1025.000000 
	C888.272949,1024.057983 892.525208,1023.007019 896.822205,1022.191711 
	C922.690918,1017.283203 945.680359,1006.206482 966.244629,989.909607 
	C966.616882,989.614563 966.830933,989.119995 967.559937,988.392334 
	C976.131226,982.549622 982.862854,975.682983 988.035706,967.311707 
z"/>
<path fill="#FDFDFD" opacity="1.000000" stroke="none" 
	d="
M141.531342,1.000000 
	C139.701797,1.624602 137.439819,2.503180 135.100128,2.836794 
	C70.629799,12.029522 15.805165,64.305283 3.674699,128.274323 
	C2.840675,132.672485 2.335458,137.132980 1.338664,141.782257 
	C1.000000,95.073006 1.000000,48.146011 1.000000,1.000000 
	C47.687332,1.000000 94.375008,1.000000 141.531342,1.000000 
z"/>
<path fill="#FDFDFE" opacity="1.000000" stroke="none" 
	d="
M0.999993,883.468628 
	C2.034834,888.452026 3.089215,893.900391 4.101528,899.356567 
	C15.589545,961.274780 71.392273,1014.457703 133.776596,1022.948608 
	C136.735504,1023.351318 139.681580,1023.848328 142.816803,1024.650635 
	C95.739685,1025.000000 48.479362,1025.000000 1.000000,1025.000000 
	C1.000000,977.979309 1.000000,930.958313 0.999993,883.468628 
z"/>
<path fill="#FDFDFE" opacity="1.000000" stroke="none" 
	d="
M1025.000000,140.531342 
	C1024.232422,137.713028 1023.324219,134.451752 1022.718018,131.135315 
	C1009.878662,60.898136 955.034851,10.289641 882.203369,1.350614 
	C929.592896,1.000000 977.185791,1.000000 1025.000000,1.000000 
	C1025.000000,47.353992 1025.000000,93.708336 1025.000000,140.531342 
z"/>
<path fill="#FCFDFD" opacity="1.000000" stroke="none" 
	d="
M565.897644,644.000000 
	C565.898438,675.973450 565.898438,707.446838 565.898438,739.228943 
	C564.314941,739.377014 563.031189,739.600891 561.747314,739.601929 
	C532.252441,739.625610 502.757172,739.554443 473.263092,739.713623 
	C469.350830,739.734741 468.142914,738.712952 468.148865,734.702637 
	C468.328094,614.388977 468.388184,494.075165 468.475983,373.761383 
	C468.480682,367.299438 468.516724,367.315582 461.932251,367.318726 
	C419.605774,367.338867 377.279266,367.351440 334.952789,367.366425 
	C333.472839,367.366943 331.992920,367.366486 330.067322,367.366486 
	C330.067322,337.469940 330.067322,307.943665 330.067322,278.195740 
	C454.421082,278.195740 578.524841,278.195740 702.977417,278.195740 
	C702.977417,307.813385 702.977417,337.224091 702.977417,367.191864 
	C657.532715,367.191864 612.143311,367.191864 566.147583,367.191864 
	C566.041138,369.450836 565.888245,371.190582 565.887573,372.930420 
	C565.872131,412.590698 565.818542,452.251129 565.961121,491.910889 
	C565.974548,495.647919 564.793274,498.010681 561.975708,500.347961 
	C549.666138,510.559204 537.585327,521.045959 525.299927,531.286926 
	C523.625977,532.682312 521.354004,533.740356 519.209534,534.127869 
	C507.483917,536.246765 498.208679,545.585449 497.071991,556.763123 
	C495.724609,570.012878 502.207733,581.029724 513.948059,585.440979 
	C525.521118,589.789246 538.226074,586.042542 545.093140,576.256226 
	C551.712341,566.823120 550.819885,553.268555 542.930237,543.782654 
	C541.777649,542.396973 540.525574,541.093994 539.173401,539.590210 
	C551.377686,529.276794 563.456360,519.093262 575.506897,508.876495 
	C582.114258,503.274689 588.625793,497.559143 595.270264,492.002197 
	C600.794617,487.382080 607.002380,487.451721 610.724670,491.984924 
	C614.774963,496.917603 613.854553,503.712677 608.354309,508.299255 
	C595.685730,518.863403 583.041931,529.460510 570.200989,539.812195 
	C567.055725,542.347778 565.791504,544.924255 565.814453,549.020630 
	C565.990723,580.512878 565.902832,612.006714 565.897644,644.000000 
z"/>
<path fill="#FAFAFC" opacity="1.000000" stroke="none" 
	d="
M682.506714,642.578979 
	C662.176575,686.423279 629.223267,716.198975 584.076782,734.641724 
	C584.076782,727.165039 583.958496,720.601196 584.194885,714.050171 
	C584.233643,712.976562 585.646729,711.653870 586.750122,710.976990 
	C589.396240,709.353882 592.235962,708.046509 595.334412,706.436646 
	C592.587036,701.496033 590.014038,697.058533 587.625244,692.523865 
	C584.812561,687.184570 585.847229,682.476807 590.225342,679.852417 
	C594.492615,677.294434 599.295837,678.816895 602.484375,683.806946 
	C603.829224,685.911560 605.042725,688.099792 606.330017,690.241577 
	C607.608887,692.369263 608.905579,694.486206 610.164001,696.557739 
	C620.422913,692.771790 645.489014,667.381775 651.381287,654.750000 
	C646.496216,651.782959 641.420288,648.985962 636.658630,645.729370 
	C631.649109,642.303223 631.398804,634.857178 636.528687,631.876831 
	C638.947693,630.471375 643.010986,630.364929 645.731323,631.339233 
	C650.845276,633.170959 655.525208,636.214417 660.925171,639.035889 
	C669.644287,620.669067 675.188599,601.786682 676.143616,580.768188 
	C670.447876,580.768188 665.318909,580.880188 660.197021,580.738220 
	C654.496765,580.580261 651.105408,577.403381 650.960144,572.397278 
	C650.810730,567.248352 654.403198,563.616333 660.171997,563.428833 
	C665.292664,563.262390 670.423096,563.393982 676.194153,563.393982 
	C675.072693,542.367798 669.673279,523.411926 660.684509,504.856232 
	C655.503723,507.605408 650.710693,510.209015 645.862122,512.704773 
	C641.008789,515.202942 636.841309,514.149231 634.198975,509.882843 
	C631.584106,505.660919 632.733459,500.752594 637.166870,497.736969 
	C639.366455,496.240814 641.697632,494.936157 643.985107,493.571442 
	C646.265076,492.211243 648.564941,490.884277 651.497803,489.166962 
	C640.709656,472.396637 627.096741,458.905884 610.531860,447.824280 
	C607.556946,452.710266 604.832703,457.281433 602.010986,461.791595 
	C599.166138,466.338928 594.909180,467.551239 590.475708,465.193420 
	C586.125549,462.879883 584.518372,458.347015 586.888245,453.694092 
	C589.372253,448.817291 592.309326,444.171295 595.248047,439.078430 
	C593.946533,438.231873 592.836914,437.102051 591.510986,436.716949 
	C585.163940,434.873566 583.141785,430.782501 583.940979,424.383362 
	C584.491211,419.977142 584.046570,415.446686 584.046570,410.840668 
	C666.087646,438.516327 726.481934,540.436523 682.506714,642.578979 
z"/>
<path fill="#989BD0" opacity="1.000000" stroke="none" 
	d="
M987.859314,967.005737 
	C982.862854,975.682983 976.131226,982.549622 967.664490,988.054382 
	C963.148438,982.076416 959.255310,975.826660 952.299438,972.563904 
	C949.971985,971.472229 947.611511,970.451050 943.952637,968.807678 
	C956.839050,964.716003 964.924988,957.229065 968.887939,944.937195 
	C972.543945,954.788879 978.580750,962.115173 987.859314,967.005737 
z"/>
</svg>